<svg width="400" height="400" viewBox="0 0 400 400" fill="none" xmlns="http://www.w3.org/2000/svg">
<g clip-path="url(#clip0)">
<path d="M400 200C400 310.458 310.458 400 200 400C89.5416 400 0 310.458 0 200C0 89.5416 89.5416 0 200 0C310.458 0 400 89.5416 400 200Z" fill="#ABA9A8"/>
<path d="M312.5 210.938H93.75C89.4348 210.938 85.9375 207.44 85.9375 203.125V62.5C85.9375 58.1848 89.4348 54.6875 93.75 54.6875H312.5C316.815 54.6875 320.312 58.1848 320.312 62.5V203.125C320.312 207.44 316.815 210.938 312.5 210.938Z" fill="#C7EEFD"/>
<path d="M343.75 93.75V273.438C343.75 282.068 336.755 289.062 328.125 289.062H78.125C69.4946 289.062 62.5 282.068 62.5 273.438V46.875C62.5 42.5598 65.9973 39.0625 70.3125 39.0625H165.204C174.078 39.0625 182.196 44.0796 186.166 52.0172L199.219 78.125H328.125C336.755 78.125 343.75 85.1196 343.75 93.75Z" fill="#262626"/>
<path d="M101.562 289.062H78.125C69.4946 289.062 62.5 282.068 62.5 273.438V46.875C62.5 42.5598 65.9973 39.0625 70.3125 39.0625H93.75C89.4348 39.0625 85.9375 42.5598 85.9375 46.875V273.438C85.9375 282.068 92.9321 289.062 101.562 289.062Z" fill="#D7CCB3"/>
<path d="M328.125 335.938H85.9375V226.562H328.125V335.938Z" fill="#98E5FB"/>
<path d="M382.812 281.25C382.812 311.453 358.328 335.938 328.125 335.938C297.922 335.938 273.438 311.453 273.438 281.25C273.438 251.047 297.922 226.562 328.125 226.562C358.328 226.562 382.812 251.047 382.812 281.25Z" fill="#C7EEFD"/>
<path d="M328.125 242.188C306.552 242.188 289.062 259.677 289.062 281.25C289.062 302.823 306.552 320.312 328.125 320.312C349.698 320.312 367.188 302.823 367.188 281.25C367.188 259.677 349.698 242.188 328.125 242.188ZM328.125 304.688C315.179 304.688 304.688 294.196 304.688 281.25C304.688 268.304 315.179 257.812 328.125 257.812C341.071 257.812 351.562 268.304 351.562 281.25C351.562 294.196 341.071 304.688 328.125 304.688ZM335.938 281.25C335.938 285.565 332.44 289.062 328.125 289.062C323.81 289.062 320.312 285.565 320.312 281.25C320.312 276.935 323.81 273.438 328.125 273.438C332.44 273.438 335.938 276.935 335.938 281.25Z" fill="#98E5FB"/>
<path d="M305.112 288.095C307.825 309.811 323.276 327.563 343.75 333.661C338.797 335.135 333.557 335.938 328.125 335.938H70.3125V281.25H297.366C301.306 281.25 304.623 284.186 305.112 288.095V288.095Z" fill="#62DAFA"/>
<path d="M226.562 281.421V292.017C226.562 297.147 223.196 301.669 218.283 303.146L201.389 308.212C196.277 309.747 192.12 313.495 190.082 318.43C190.06 318.481 190.039 318.53 190.021 318.582C187.967 323.517 188.248 329.114 190.781 333.823L199.142 349.35C201.578 353.87 200.757 359.448 197.128 363.074L189.636 370.566C186.011 374.194 180.432 375.015 175.912 372.58L160.385 364.218C155.676 361.685 150.079 361.404 145.145 363.458C145.093 363.48 145.044 363.498 144.992 363.519C140.057 365.558 136.31 369.714 134.775 374.826L129.709 391.721C128.235 396.634 123.709 400 118.579 400H107.983C102.853 400 98.3307 396.634 96.8536 391.721L91.7877 374.826C90.2527 369.714 86.5051 365.558 81.5704 363.519C81.5186 363.498 81.4697 363.477 81.4178 363.458C76.4832 361.404 70.8862 361.685 66.1774 364.218L50.65 372.58C46.1304 375.015 40.5518 374.194 36.9263 370.566L29.4342 363.074C25.8057 359.448 24.9847 353.87 27.42 349.35L35.7819 333.823C38.3148 329.114 38.5956 323.517 36.5417 318.582C36.5204 318.53 36.5021 318.481 36.4807 318.43C34.4421 313.495 30.2856 309.747 25.174 308.212L8.27942 303.146C3.36609 301.669 0 297.147 0 292.017V281.421C0 276.291 3.36609 271.768 8.27942 270.291L25.174 265.225C30.2856 263.69 34.4421 259.943 36.4807 255.008C36.5021 254.956 36.5234 254.907 36.5417 254.855C38.5956 249.921 38.3148 244.324 35.7819 239.615L27.42 224.088C24.9847 219.568 25.8057 213.989 29.4342 210.364L36.9263 202.872C40.5518 199.243 46.1304 198.422 50.65 200.858L66.1774 209.219C70.8862 211.752 76.4832 212.033 81.4178 209.979C81.4697 209.958 81.5186 209.94 81.5704 209.918C86.5051 207.88 90.2527 203.723 91.7877 198.611L96.8536 181.717C98.3276 176.804 102.853 173.438 107.983 173.438H118.579C123.709 173.438 128.232 176.804 129.709 181.717L134.775 198.611C136.31 203.723 140.057 207.88 144.992 209.918C145.044 209.94 145.093 209.961 145.145 209.979C150.079 212.033 155.676 211.752 160.385 209.219L175.912 200.858C180.432 198.422 186.011 199.243 189.636 202.872L197.128 210.364C200.757 213.989 201.578 219.568 199.142 224.088L190.781 239.615C188.248 244.324 187.967 249.921 190.021 254.855C190.042 254.907 190.06 254.956 190.082 255.008C192.12 259.943 196.277 263.69 201.389 265.225L218.283 270.291C223.196 271.765 226.562 276.291 226.562 281.421Z" fill="#314DC8"/>
<path d="M178.928 286.719C178.928 322.974 149.536 352.365 113.281 352.365C77.0264 352.365 47.6349 322.974 47.6349 286.719C47.6349 250.464 77.0264 221.072 113.281 221.072C149.536 221.072 178.928 250.464 178.928 286.719Z" fill="#172A7D"/>
<path d="M178.928 286.719C178.928 319.009 155.612 345.853 124.899 351.34C94.1864 345.853 70.874 319.009 70.874 286.719C70.874 254.428 94.1864 227.585 124.899 222.098C155.612 227.585 178.928 254.428 178.928 286.719Z" fill="#1F3595"/>
<path d="M144.07 286.719C144.07 303.723 130.286 317.508 113.281 317.508C96.2769 317.508 82.4921 303.723 82.4921 286.719C82.4921 269.714 96.2769 255.93 113.281 255.93C130.286 255.93 144.07 269.714 144.07 286.719Z" fill="#62DAFA"/>
<path d="M82.9865 281.25C85.5682 266.855 98.1445 255.93 113.281 255.93C128.418 255.93 140.994 266.855 143.576 281.25H82.9865Z" fill="#98E5FB"/>
</g>
<defs>
<clipPath id="clip0">
<rect width="400" height="400" fill="white"/>
</clipPath>
</defs>
</svg>
